<?xml version="1.0" encoding="UTF-8" standalone="no"?>
<!-- Created with Inkscape (http://www.inkscape.org/) -->

<svg
   width="70.957878mm"
   height="35.72533mm"
   viewBox="0 0 70.957878 35.72533"
   version="1.1"
   id="svg1"
   xml:space="preserve"
   inkscape:version="1.4.4 (dcaf3e7d9e, 2026-05-05)"
   sodipodi:docname="Chemin.svg"
   xmlns:inkscape="http://www.inkscape.org/namespaces/inkscape"
   xmlns:sodipodi="http://sodipodi.sourceforge.net/DTD/sodipodi-0.dtd"
   xmlns:xlink="http://www.w3.org/1999/xlink"
   xmlns="http://www.w3.org/2000/svg"
   xmlns:svg="http://www.w3.org/2000/svg"><sodipodi:namedview
     id="namedview1"
     pagecolor="#ffffff"
     bordercolor="#000000"
     borderopacity="0.25"
     inkscape:showpageshadow="2"
     inkscape:pageopacity="0.0"
     inkscape:pagecheckerboard="0"
     inkscape:deskcolor="#d1d1d1"
     inkscape:document-units="mm"
     inkscape:zoom="11.313709"
     inkscape:cx="284.74306"
     inkscape:cy="202.5419"
     inkscape:window-width="1920"
     inkscape:window-height="1011"
     inkscape:window-x="0"
     inkscape:window-y="32"
     inkscape:window-maximized="1"
     inkscape:current-layer="layer1"><inkscape:page
       x="0"
       y="0"
       width="70.957878"
       height="35.72533"
       id="page2"
       margin="0"
       bleed="0" /></sodipodi:namedview><defs
     id="defs1"><inkscape:path-effect
       effect="fillet_chamfer"
       id="path-effect11"
       is_visible="true"
       lpeversion="1"
       nodesatellites_param="F,0,0,1,0,0,0,1 @ F,0,0,1,0,0,0,1 @ F,0,0,1,0,0,0,1 @ F,0,0,1,0,0,0,1"
       radius="0"
       unit="px"
       method="auto"
       mode="F"
       chamfer_steps="1"
       flexible="false"
       use_knot_distance="true"
       apply_no_radius="true"
       apply_with_radius="true"
       only_selected="false"
       hide_knots="false" /><path
       id="MJX-6-NCM-I-1D465"
       d="m 527,373 c 0,46 -45,69 -95,69 -43,0 -77,-23 -103,-69 -21,46 -56,69 -107,69 -49,0 -89,-23 -121,-68 -27,-39 -41,-68 -41,-87 0,-9 5,-14 15,-14 9,0 15,5 17,14 19,58 61,126 128,126 33,0 49,-21 49,-62 0,-21 -18,-99 -53,-233 C 199,51 169,18 126,18 c -14,0 -27,3 -38,8 26,10 39,28 39,54 0,26 -13,39 -40,39 -33,0 -58,-28 -58,-61 0,-46 47,-69 96,-69 42,0 76,23 103,69 19,-46 55,-69 107,-69 48,0 88,23 120,68 27,39 41,68 41,87 0,9 -5,14 -15,14 -9,0 -14,-5 -17,-14 C 447,87 402,18 337,18 c -33,0 -50,20 -50,61 0,13 5,41 16,86 l 34,135 c 19,75 50,113 94,113 14,0 27,-3 38,-8 -27,-9 -40,-27 -40,-54 0,-26 14,-39 41,-39 32,0 57,29 57,61 z" /><path
       id="MJX-6-NCM-N-34"
       d="m 353,677 c -9,0 -17,-5 -23,-14 L 28,199 V 163 H 289 V 81 c 0,-18 -4,-30 -11,-35 -7,-5 -26,-7 -59,-7 H 194 V 0 c 29,2 75,3 137,3 62,0 108,-1 137,-3 v 39 h -25 c -33,0 -52,2 -59,7 -7,5 -11,17 -11,35 v 82 h 98 v 39 h -98 v 458 c 0,10 -7,17 -20,17 M 295,553 V 202 H 67 Z" /><path
       id="MJX-9-NCM-I-1D465"
       d="m 527,373 c 0,46 -45,69 -95,69 -43,0 -77,-23 -103,-69 -21,46 -56,69 -107,69 -49,0 -89,-23 -121,-68 -27,-39 -41,-68 -41,-87 0,-9 5,-14 15,-14 9,0 15,5 17,14 19,58 61,126 128,126 33,0 49,-21 49,-62 0,-21 -18,-99 -53,-233 C 199,51 169,18 126,18 c -14,0 -27,3 -38,8 26,10 39,28 39,54 0,26 -13,39 -40,39 -33,0 -58,-28 -58,-61 0,-46 47,-69 96,-69 42,0 76,23 103,69 19,-46 55,-69 107,-69 48,0 88,23 120,68 27,39 41,68 41,87 0,9 -5,14 -15,14 -9,0 -14,-5 -17,-14 C 447,87 402,18 337,18 c -33,0 -50,20 -50,61 0,13 5,41 16,86 l 34,135 c 19,75 50,113 94,113 14,0 27,-3 38,-8 -27,-9 -40,-27 -40,-54 0,-26 14,-39 41,-39 32,0 57,29 57,61 z" /><path
       id="MJX-9-NCM-N-33"
       d="m 303,353 c 66,25 128,88 128,173 0,43 -21,78 -62,105 -36,23 -77,35 -123,35 -45,0 -84,-12 -119,-35 -39,-26 -59,-60 -59,-103 0,-33 22,-56 54,-56 32,0 54,23 54,55 0,33 -19,51 -57,53 26,35 67,53 123,53 60,0 90,-35 90,-106 0,-42 -8,-77 -23,-106 -27,-48 -64,-57 -126,-57 -12,-2 -18,-7 -18,-16 0,-15 7,-15 27,-15 h 43 C 310,333 348,280 348,173 348,88 317,14 241,14 176,14 128,36 99,80 c 35,-1 61,25 61,59 0,34 -25,59 -59,59 -39,0 -59,-20 -59,-61 0,-49 22,-88 66,-119 39,-27 85,-40 136,-40 57,0 106,19 149,56 43,37 64,83 64,139 0,94 -74,159 -154,180 z" /><path
       id="MJX-10-NCM-I-1D465"
       d="m 527,373 c 0,46 -45,69 -95,69 -43,0 -77,-23 -103,-69 -21,46 -56,69 -107,69 -49,0 -89,-23 -121,-68 -27,-39 -41,-68 -41,-87 0,-9 5,-14 15,-14 9,0 15,5 17,14 19,58 61,126 128,126 33,0 49,-21 49,-62 0,-21 -18,-99 -53,-233 C 199,51 169,18 126,18 c -14,0 -27,3 -38,8 26,10 39,28 39,54 0,26 -13,39 -40,39 -33,0 -58,-28 -58,-61 0,-46 47,-69 96,-69 42,0 76,23 103,69 19,-46 55,-69 107,-69 48,0 88,23 120,68 27,39 41,68 41,87 0,9 -5,14 -15,14 -9,0 -14,-5 -17,-14 C 447,87 402,18 337,18 c -33,0 -50,20 -50,61 0,13 5,41 16,86 l 34,135 c 19,75 50,113 94,113 14,0 27,-3 38,-8 -27,-9 -40,-27 -40,-54 0,-26 14,-39 41,-39 32,0 57,29 57,61 z" /><path
       id="MJX-10-NCM-N-32"
       d="M 237,666 C 186,666 143,648 106,612 69,576 50,534 50,483 c 0,-34 25,-59 56,-59 30,0 55,26 55,56 0,33 -24,56 -56,56 -3,0 -5,0 -7,-1 19,49 63,92 126,92 82,0 128,-71 128,-157 0,-67 -34,-139 -102,-215 L 62,43 C 49,28 50,29 50,0 h 371 l 29,180 h -33 c -8,-51 -15,-80 -21,-89 -5,-5 -35,-7 -90,-7 H 139 l 97,95 c 68,64 154,133 183,186 20,35 30,70 30,105 0,118 -92,196 -212,196 z" /><path
       id="MJX-11-NCM-I-1D465"
       d="m 527,373 c 0,46 -45,69 -95,69 -43,0 -77,-23 -103,-69 -21,46 -56,69 -107,69 -49,0 -89,-23 -121,-68 -27,-39 -41,-68 -41,-87 0,-9 5,-14 15,-14 9,0 15,5 17,14 19,58 61,126 128,126 33,0 49,-21 49,-62 0,-21 -18,-99 -53,-233 C 199,51 169,18 126,18 c -14,0 -27,3 -38,8 26,10 39,28 39,54 0,26 -13,39 -40,39 -33,0 -58,-28 -58,-61 0,-46 47,-69 96,-69 42,0 76,23 103,69 19,-46 55,-69 107,-69 48,0 88,23 120,68 27,39 41,68 41,87 0,9 -5,14 -15,14 -9,0 -14,-5 -17,-14 C 447,87 402,18 337,18 c -33,0 -50,20 -50,61 0,13 5,41 16,86 l 34,135 c 19,75 50,113 94,113 14,0 27,-3 38,-8 -27,-9 -40,-27 -40,-54 0,-26 14,-39 41,-39 32,0 57,29 57,61 z" /><path
       id="MJX-11-NCM-N-31"
       d="M 269,666 C 228,624 168,603 89,603 v -39 c 52,0 95,8 128,24 V 82 c 0,-18 -4,-30 -13,-35 -9,-5 -34,-8 -74,-8 H 95 V 0 c 25,2 79,3 162,3 83,0 137,-1 162,-3 v 39 h -35 c -41,0 -66,3 -74,8 -8,5 -13,17 -13,35 v 554 c 0,24 -2,30 -28,30 z" /><path
       id="MJX-12-NCM-I-1D465"
       d="m 527,373 c 0,46 -45,69 -95,69 -43,0 -77,-23 -103,-69 -21,46 -56,69 -107,69 -49,0 -89,-23 -121,-68 -27,-39 -41,-68 -41,-87 0,-9 5,-14 15,-14 9,0 15,5 17,14 19,58 61,126 128,126 33,0 49,-21 49,-62 0,-21 -18,-99 -53,-233 C 199,51 169,18 126,18 c -14,0 -27,3 -38,8 26,10 39,28 39,54 0,26 -13,39 -40,39 -33,0 -58,-28 -58,-61 0,-46 47,-69 96,-69 42,0 76,23 103,69 19,-46 55,-69 107,-69 48,0 88,23 120,68 27,39 41,68 41,87 0,9 -5,14 -15,14 -9,0 -14,-5 -17,-14 C 447,87 402,18 337,18 c -33,0 -50,20 -50,61 0,13 5,41 16,86 l 34,135 c 19,75 50,113 94,113 14,0 27,-3 38,-8 -27,-9 -40,-27 -40,-54 0,-26 14,-39 41,-39 32,0 57,29 57,61 z" /><path
       id="MJX-12-NCM-N-30"
       d="m 249,-22 c 141,0 211,114 211,342 0,153 -32,255 -95,305 -35,27 -74,41 -115,41 C 109,666 39,551 39,320 39,136 88,-22 249,-22 m 112,546 c 7,-35 10,-99 10,-192 0,-92 -4,-160 -11,-204 C 347,48 310,8 249,8 c -23,0 -46,9 -67,26 -27,23 -43,70 -50,142 -3,25 -4,77 -4,156 0,87 3,148 8,181 9,55 27,90 55,105 22,12 41,18 58,18 65,0 101,-53 112,-112 z" /></defs><g
     inkscape:label="Layer 1"
     inkscape:groupmode="layer"
     id="layer1"
     transform="translate(-67.29358,-41.952142)"><ellipse
       style="opacity:1;fill:none;fill-opacity:1;fill-rule:nonzero;stroke:#000000;stroke-width:0.0998015;stroke-dasharray:none;stroke-opacity:1"
       id="path6"
       cx="101.86148"
       cy="45.900543"
       rx="3.9928176"
       ry="3.8985016" /><rect
       style="opacity:1;fill:none;fill-opacity:1;fill-rule:nonzero;stroke:#000000;stroke-width:0.1;stroke-dasharray:none;stroke-opacity:1"
       id="rect6"
       width="9.9032001"
       height="8.2055082"
       x="81.080482"
       y="67.058807" /><path
       style="opacity:1;fill:none;fill-opacity:1;fill-rule:nonzero;stroke:#000000;stroke-width:0.1;stroke-dasharray:none;stroke-opacity:1"
       d="m 67.325186,54.520396 c 1.989634,1.622831 4.479454,2.756587 4.479454,2.756587"
       id="path8"
       sodipodi:nodetypes="cc" /><path
       style="opacity:1;fill:none;fill-opacity:1;fill-rule:nonzero;stroke:#000000;stroke-width:0.1;stroke-dasharray:none;stroke-opacity:1"
       d="m 71.671256,51.919422 c -1.922941,1.467216 -4.290494,2.600974 -4.290494,2.600974"
       id="path9"
       sodipodi:nodetypes="cc" /><path
       style="opacity:1;fill:none;fill-opacity:1;fill-rule:nonzero;stroke:#000000;stroke-width:0.1;stroke-dasharray:none;stroke-opacity:1"
       d="m 70.79315,52.552992 c 1.182399,0.883272 1.166186,2.82259 8e-6,4.212688"
       id="path10"
       sodipodi:nodetypes="cc" /><path
       style="opacity:1;fill:none;fill-opacity:1;fill-rule:nonzero;stroke:#000000;stroke-width:0.1;stroke-dasharray:none;stroke-opacity:1"
       id="path11"
       inkscape:path-effect="#path-effect11"
       sodipodi:type="arc"
       sodipodi:cx="112.80216"
       sodipodi:cy="69.754684"
       sodipodi:rx="3.5211375"
       sodipodi:ry="2.8845034"
       d="m 116.3233,69.754684 c 0,1.593068 -1.57647,2.884504 -3.52114,2.884504 -1.94467,0 -3.52114,-1.291436 -3.52114,-2.884504 0,-1.593067 1.57647,-2.884503 3.52114,-2.884503 1.94467,0 3.52114,1.291436 3.52114,2.884503 z"
       transform="matrix(1.0003471,0,0,0.95137741,0.02372188,3.6117248)" /><path
       style="opacity:1;fill:none;fill-opacity:1;fill-rule:nonzero;stroke:#000000;stroke-width:0.1;stroke-dasharray:none;stroke-opacity:1"
       d="m 112.80216,72.7335 c -0.0314,2.672291 -0.0314,3.269628 0.15719,3.819805 0.18864,0.55018 0.35249,0.731163 0.55256,0.861767 0.20007,0.130606 -0.19452,0.07781 0.31123,0.08059 0.50574,0.0028 0.84754,-0.530754 1.04761,-0.800298 0.20008,-0.269547 0.98648,-1.661734 1.12542,-1.886818 0.13894,-0.225084 0.0917,-0.213968 0.13894,0.113932 0.0472,0.327898 0.0889,0.405084 0.11116,0.655799 0.0201,0.20731 0.0361,0.864214 0.13616,1.20323 0.10003,0.339016 0.2751,0.477956 0.43071,0.647464 0.15562,0.169508 0.38904,0.183402 0.60023,0.191739 0.21119,0.0083 0.42238,0.04724 0.63079,-0.233421 0.20841,-0.280662 0.43072,-0.805857 0.46962,-1.105969 0.0389,-0.300114 0.15839,-1.547802 0.1834,-1.836798 0.025,-0.288999 0.0472,-0.37792 0.0556,-0.37792 0.008,0 0.76417,-0.01667 0.76417,-0.01667 0.98647,-0.236206 0.98647,-0.238985 0.98647,-0.238985 0,0 -0.0195,-1.40886 -0.0361,-1.586705 -0.0167,-0.177844 -0.0723,-1.381072 -0.1306,-1.647838 -0.0584,-0.266767 -0.13622,-0.500187 -0.23898,-0.741944 -0.214,-0.302892 -0.12508,-0.2362 -0.28069,-0.314007 -0.15562,-0.07781 -1.62839,-0.03335 -1.62839,-0.03335 0,0 0.0222,-1.745097 0,-1.867365 -0.0222,-0.122268 -0.0945,-0.594667 -0.15006,-0.789184 -0.0556,-0.194517 -0.20007,-0.744723 -0.27788,-0.911452 -0.0778,-0.166729 -0.34457,-0.633571 -0.53353,-0.794742 -0.18896,-0.161171 -0.53909,-0.455726 -1.09485,-0.566879 -0.55577,-0.111152 -1.156,-0.21119 -1.75066,-0.07781 -0.008,0.01688 -0.34555,0.08762 -0.66779,0.244814 -0.32225,0.157193 -0.59734,0.471581 -0.98246,0.880284 -0.38513,0.408704 -0.7231,1.00604 -0.78597,1.367585 -0.0629,0.361545 -0.0472,0.385124 -0.0472,0.385124"
       id="path12"
       sodipodi:nodetypes="ccsssscccscsssscccccscscssscsscc" /><ellipse
       style="opacity:1;fill:none;fill-opacity:1;fill-rule:nonzero;stroke:#000000;stroke-width:0.104837;stroke-dasharray:none;stroke-opacity:1"
       id="path13"
       cx="130.91913"
       cy="51.196877"
       rx="3.2718008"
       ry="3.3048735" /><path
       style="opacity:1;fill:none;fill-opacity:1;fill-rule:nonzero;stroke:#000000;stroke-width:0.1;stroke-dasharray:none;stroke-opacity:1"
       d="m 127.85989,50.320442 c -3.10885,-1.918229 -3.10885,-1.918229 -3.10885,-1.918229"
       id="path14" /><path
       style="opacity:1;fill:none;fill-opacity:1;fill-rule:nonzero;stroke:#000000;stroke-width:0.1;stroke-dasharray:none;stroke-opacity:1"
       d="m 129.03398,48.666796 c -1.7694,-3.439583 -1.7694,-3.439583 -1.7694,-3.439583"
       id="path15" /><path
       style="opacity:1;fill:none;fill-opacity:1;fill-rule:nonzero;stroke:#000000;stroke-width:0.1;stroke-dasharray:none;stroke-opacity:1"
       d="m 130.78685,47.889583 c -0.0496,-3.604948 -0.0496,-3.604948 -0.0496,-3.604948"
       id="path16" /><path
       style="opacity:1;fill:none;fill-opacity:1;fill-rule:nonzero;stroke:#000000;stroke-width:0.1;stroke-dasharray:none;stroke-opacity:1"
       d="m 132.44049,48.36914 c 4.26641,-2.678906 4.26641,-2.678906 4.26641,-2.678906"
       id="path17" /><path
       style="opacity:1;fill:none;fill-opacity:1;fill-rule:nonzero;stroke:#000000;stroke-width:0.1;stroke-dasharray:none;stroke-opacity:1"
       d="m 133.69726,49.44401 c 4.54753,-0.611849 4.54753,-0.611849 4.54753,-0.611849"
       id="path18" /><path
       style="opacity:1;fill:none;fill-opacity:1;fill-rule:nonzero;stroke:#000000;stroke-width:0.1;stroke-dasharray:none;stroke-opacity:1"
       d="m 134.17682,51.048046 c 4.0349,1.835547 4.0349,1.835547 4.0349,1.835547"
       id="path19" /><path
       style="opacity:1;fill:none;fill-opacity:1;fill-rule:nonzero;stroke:#000000;stroke-width:0.1;stroke-dasharray:none;stroke-opacity:1"
       d="m 133.64765,53.13164 c 2.05053,3.604948 2.05053,3.604948 2.05053,3.604948"
       id="path20" /><path
       style="opacity:1;fill:none;fill-opacity:1;fill-rule:nonzero;stroke:#000000;stroke-width:0.1;stroke-dasharray:none;stroke-opacity:1"
       d="m 131.81211,54.289192 c 0.56224,4.117578 0.56224,4.117578 0.56224,4.117578"
       id="path21" /><path
       style="opacity:1;fill:none;fill-opacity:1;fill-rule:nonzero;stroke:#000000;stroke-width:0.1;stroke-dasharray:none;stroke-opacity:1"
       d="m 129.56315,54.140364 c -2.54662,3.869531 -2.54662,3.869531 -2.54662,3.869531"
       id="path22" /><path
       style="opacity:1;fill:none;fill-opacity:1;fill-rule:nonzero;stroke:#000000;stroke-width:0.1;stroke-dasharray:none;stroke-opacity:1"
       d="m 128.02526,52.602473 c -5.01055,-0.06615 -5.01055,-0.06615 -5.01055,-0.06615"
       id="path23" /><path
       style="opacity:1;fill:none;fill-opacity:1;fill-rule:nonzero;stroke:#000000;stroke-width:0.1;stroke-dasharray:none;stroke-opacity:1"
       d="M 70.929991,54.489574 C 86.014014,70.462269 86.014014,70.462269 86.014014,70.462269 101.40156,46.500521 101.40156,46.500521 101.40156,46.500521 c 10.84792,22.489583 10.84792,22.489583 10.84792,22.489583 18.25625,-17.594792 18.25625,-17.594792 18.25625,-17.594792"
       id="path24" /><g
       id="g27-48"
       transform="matrix(0.60888668,0.61344434,-0.61739363,0.58853154,63.958988,-10.349259)"><path
         style="opacity:1;fill:#000000;fill-opacity:1;fill-rule:nonzero;stroke:#000000;stroke-width:0.1;stroke-dasharray:none;stroke-opacity:1"
         d="m 84.302864,47.426562 c 1.686718,1.785937 1.686718,1.785937 1.686718,1.785937"
         id="path26-6" /><path
         style="opacity:1;fill:#000000;fill-opacity:1;fill-rule:nonzero;stroke:#000000;stroke-width:0.1;stroke-dasharray:none;stroke-opacity:1"
         d="m 84.269791,49.179426 c 1.852083,-1.81901 1.852083,-1.81901 1.852083,-1.81901"
         id="path27-5" /></g><g
       id="g27-4"
       transform="matrix(-0.61206719,0.610271,-0.58992484,-0.61606246,182.01025,24.275545)"><path
         style="opacity:1;fill:#000000;fill-opacity:1;fill-rule:nonzero;stroke:#000000;stroke-width:0.1;stroke-dasharray:none;stroke-opacity:1"
         d="m 84.302864,47.426562 c 1.686718,1.785937 1.686718,1.785937 1.686718,1.785937"
         id="path26-5" /><path
         style="opacity:1;fill:#000000;fill-opacity:1;fill-rule:nonzero;stroke:#000000;stroke-width:0.1;stroke-dasharray:none;stroke-opacity:1"
         d="m 84.269791,49.179426 c 1.852083,-1.81901 1.852083,-1.81901 1.852083,-1.81901"
         id="path27-7" /></g><g
       id="g27-6"
       transform="matrix(0.33445599,0.79699193,-0.79302098,0.31410506,122.01632,-14.060027)"><path
         style="opacity:1;fill:#000000;fill-opacity:1;fill-rule:nonzero;stroke:#000000;stroke-width:0.1;stroke-dasharray:none;stroke-opacity:1"
         d="m 84.302864,47.426562 c 1.686718,1.785937 1.686718,1.785937 1.686718,1.785937"
         id="path26-8" /><path
         style="opacity:1;fill:#000000;fill-opacity:1;fill-rule:nonzero;stroke:#000000;stroke-width:0.1;stroke-dasharray:none;stroke-opacity:1"
         d="m 84.269791,49.179426 c 1.852083,-1.81901 1.852083,-1.81901 1.852083,-1.81901"
         id="path27-0" /></g><g
       data-mml-node="msub"
       data-latex="x_4 "
       data-semantic-type="subscript"
       data-semantic-role="latinletter"
       data-semantic-annotation="depth:1"
       data-semantic-id="2"
       data-semantic-children="0,1"
       data-semantic-attributes="latex:x_4"
       data-semantic-owns="0 1"
       aria-level="0"
       data-speech-node="true"
       id="g3"
       transform="matrix(0.00373271,0,0,-0.00372093,71.765683,54.054891)"
       style="fill:#000000;stroke:#000000;stroke-width:0"><g
         data-mml-node="mi"
         data-latex="x"
         data-semantic-type="identifier"
         data-semantic-role="latinletter"
         data-semantic-font="italic"
         data-semantic-annotation="clearspeak:simple;nemeth:number;depth:2"
         data-semantic-id="0"
         data-semantic-parent="2"
         data-semantic-attributes="latex:x"
         aria-level="1"
         data-speech-node="true"
         id="g1"><use
           data-c="1D465"
           xlink:href="#MJX-6-NCM-I-1D465"
           id="use1" /></g><g
         data-mml-node="mn"
         transform="matrix(0.707,0,0,0.707,605,-150)"
         data-latex="4"
         data-semantic-type="number"
         data-semantic-role="integer"
         data-semantic-font="normal"
         data-semantic-annotation="clearspeak:simple;depth:2"
         data-semantic-id="1"
         data-semantic-parent="2"
         data-semantic-attributes="latex:4"
         aria-level="1"
         data-speech-node="true"
         id="g2"><use
           data-c="34"
           xlink:href="#MJX-6-NCM-N-34"
           id="use2" /></g></g><g
       data-mml-node="msub"
       data-latex="x_3 "
       data-semantic-type="subscript"
       data-semantic-role="latinletter"
       data-semantic-annotation="depth:1"
       data-semantic-id="2"
       data-semantic-children="0,1"
       data-semantic-attributes="latex:x_3"
       data-semantic-owns="0 1"
       aria-level="0"
       data-speech-node="true"
       id="g3-9"
       transform="matrix(0.00374863,0,0,-0.00382675,87.307406,72.042336)"
       style="fill:#000000;stroke:#000000;stroke-width:0"><g
         data-mml-node="mi"
         data-latex="x"
         data-semantic-type="identifier"
         data-semantic-role="latinletter"
         data-semantic-font="italic"
         data-semantic-annotation="clearspeak:simple;nemeth:number;depth:2"
         data-semantic-id="0"
         data-semantic-parent="2"
         data-semantic-attributes="latex:x"
         aria-level="1"
         data-speech-node="true"
         id="g1-2"><use
           data-c="1D465"
           xlink:href="#MJX-9-NCM-I-1D465"
           id="use1-7" /></g><g
         data-mml-node="mn"
         transform="matrix(0.707,0,0,0.707,605,-150)"
         data-latex="3"
         data-semantic-type="number"
         data-semantic-role="integer"
         data-semantic-font="normal"
         data-semantic-annotation="clearspeak:simple;depth:2"
         data-semantic-id="1"
         data-semantic-parent="2"
         data-semantic-attributes="latex:3"
         aria-level="1"
         data-speech-node="true"
         id="g2-2"><use
           data-c="33"
           xlink:href="#MJX-9-NCM-N-33"
           id="use2-2" /></g></g><g
       data-mml-node="msub"
       data-latex="x_2 "
       data-semantic-type="subscript"
       data-semantic-role="latinletter"
       data-semantic-annotation="depth:1"
       data-semantic-id="2"
       data-semantic-children="0,1"
       data-semantic-attributes="latex:x_2"
       data-semantic-owns="0 1"
       aria-level="0"
       data-speech-node="true"
       id="g3-3"
       transform="matrix(0.0034798,0,0,-0.0033654,102.28654,46.886977)"
       style="fill:#000000;stroke:#000000;stroke-width:0"><g
         data-mml-node="mi"
         data-latex="x"
         data-semantic-type="identifier"
         data-semantic-role="latinletter"
         data-semantic-font="italic"
         data-semantic-annotation="clearspeak:simple;nemeth:number;depth:2"
         data-semantic-id="0"
         data-semantic-parent="2"
         data-semantic-attributes="latex:x"
         aria-level="1"
         data-speech-node="true"
         id="g1-4"><use
           data-c="1D465"
           xlink:href="#MJX-10-NCM-I-1D465"
           id="use1-6" /></g><g
         data-mml-node="mn"
         transform="matrix(0.707,0,0,0.707,605,-150)"
         data-latex="2"
         data-semantic-type="number"
         data-semantic-role="integer"
         data-semantic-font="normal"
         data-semantic-annotation="clearspeak:simple;depth:2"
         data-semantic-id="1"
         data-semantic-parent="2"
         data-semantic-attributes="latex:2"
         aria-level="1"
         data-speech-node="true"
         id="g2-5"><use
           data-c="32"
           xlink:href="#MJX-10-NCM-N-32"
           id="use2-7" /></g></g><g
       data-mml-node="msub"
       data-latex="x_1 "
       data-semantic-type="subscript"
       data-semantic-role="latinletter"
       data-semantic-annotation="depth:1"
       data-semantic-id="2"
       data-semantic-children="0,1"
       data-semantic-attributes="latex:x_1"
       data-semantic-owns="0 1"
       aria-level="0"
       data-speech-node="true"
       id="g3-6"
       transform="matrix(0.00285708,0,0,-0.00277285,113.10135,70.740211)"
       style="fill:#000000;stroke:#000000;stroke-width:0"><g
         data-mml-node="mi"
         data-latex="x"
         data-semantic-type="identifier"
         data-semantic-role="latinletter"
         data-semantic-font="italic"
         data-semantic-annotation="clearspeak:simple;nemeth:number;depth:2"
         data-semantic-id="0"
         data-semantic-parent="2"
         data-semantic-attributes="latex:x"
         aria-level="1"
         data-speech-node="true"
         id="g1-7"><use
           data-c="1D465"
           xlink:href="#MJX-11-NCM-I-1D465"
           id="use1-4" /></g><g
         data-mml-node="mn"
         transform="matrix(0.707,0,0,0.707,605,-150)"
         data-latex="1"
         data-semantic-type="number"
         data-semantic-role="integer"
         data-semantic-font="normal"
         data-semantic-annotation="clearspeak:simple;depth:2"
         data-semantic-id="1"
         data-semantic-parent="2"
         data-semantic-attributes="latex:1"
         aria-level="1"
         data-speech-node="true"
         id="g2-3"><use
           data-c="31"
           xlink:href="#MJX-11-NCM-N-31"
           id="use2-6" /></g></g><g
       data-mml-node="msub"
       data-latex="x_0  "
       data-semantic-type="subscript"
       data-semantic-role="latinletter"
       data-semantic-annotation="depth:1"
       data-semantic-id="2"
       data-semantic-children="0,1"
       data-semantic-attributes="latex:x_0 "
       data-semantic-owns="0 1"
       aria-level="0"
       data-speech-node="true"
       id="g3-8"
       transform="matrix(0.00338778,0,0,-0.00301841,131.77334,51.660173)"
       style="fill:#000000;stroke:#000000;stroke-width:0"><g
         data-mml-node="mi"
         data-latex="x"
         data-semantic-type="identifier"
         data-semantic-role="latinletter"
         data-semantic-font="italic"
         data-semantic-annotation="clearspeak:simple;nemeth:number;depth:2"
         data-semantic-id="0"
         data-semantic-parent="2"
         data-semantic-attributes="latex:x"
         aria-level="1"
         data-speech-node="true"
         id="g1-5"><use
           data-c="1D465"
           xlink:href="#MJX-12-NCM-I-1D465"
           id="use1-9" /></g><g
         data-mml-node="mn"
         transform="matrix(0.707,0,0,0.707,605,-150)"
         data-latex="0"
         data-semantic-type="number"
         data-semantic-role="integer"
         data-semantic-font="normal"
         data-semantic-annotation="clearspeak:simple;depth:2"
         data-semantic-id="1"
         data-semantic-parent="2"
         data-semantic-attributes="latex:0"
         aria-level="1"
         data-speech-node="true"
         id="g2-58"><use
           data-c="30"
           xlink:href="#MJX-12-NCM-N-30"
           id="use2-4" /></g></g><g
       id="g27"
       transform="matrix(0.76449875,0.40323517,-0.4130921,0.74625678,85.354159,-19.107735)"><path
         style="opacity:1;fill:#000000;fill-opacity:1;fill-rule:nonzero;stroke:#000000;stroke-width:0.1;stroke-dasharray:none;stroke-opacity:1"
         d="m 84.302864,47.426562 c 1.686718,1.785937 1.686718,1.785937 1.686718,1.785937"
         id="path26" /><path
         style="opacity:1;fill:#000000;fill-opacity:1;fill-rule:nonzero;stroke:#000000;stroke-width:0.1;stroke-dasharray:none;stroke-opacity:1"
         d="m 84.269791,49.179426 c 1.852083,-1.81901 1.852083,-1.81901 1.852083,-1.81901"
         id="path27" /></g><g
       id="g27-5"
       transform="matrix(0.7529657,0.39667857,-0.40686029,0.73412265,26.551043,-14.70221)"><path
         style="opacity:1;fill:#000000;fill-opacity:1;fill-rule:nonzero;stroke:#000000;stroke-width:0.1;stroke-dasharray:none;stroke-opacity:1"
         d="m 84.302864,47.426562 c 1.686718,1.785937 1.686718,1.785937 1.686718,1.785937"
         id="path26-67" /><path
         style="opacity:1;fill:#000000;fill-opacity:1;fill-rule:nonzero;stroke:#000000;stroke-width:0.1;stroke-dasharray:none;stroke-opacity:1"
         d="m 84.269791,49.179426 c 1.852083,-1.81901 1.852083,-1.81901 1.852083,-1.81901"
         id="path27-51" /></g></g></svg>
